<mxfile host="Electron" modified="2024-12-03T17:36:05.042Z" agent="Mozilla/5.0 (Macintosh; Intel Mac OS X 10_15_7) AppleWebKit/537.36 (KHTML, like Gecko) draw.io/24.0.4 Chrome/120.0.6099.109 Electron/28.1.0 Safari/537.36" etag="BycqFF403LNwGtN0JlM3" version="24.0.4" type="device">
  <diagram name="Page-1" id="vEyARJkMsleon18ZpRC0">
    <mxGraphModel dx="1108" dy="769" grid="1" gridSize="10" guides="1" tooltips="1" connect="1" arrows="1" fold="1" page="1" pageScale="1" pageWidth="1100" pageHeight="850" math="0" shadow="0">
      <root>
        <mxCell id="0" />
        <mxCell id="1" parent="0" />
        <mxCell id="9lTZl3K5D15SRWh5dCpm-21" style="edgeStyle=orthogonalEdgeStyle;rounded=0;orthogonalLoop=1;jettySize=auto;html=1;entryX=0.5;entryY=0;entryDx=0;entryDy=0;" edge="1" parent="1" source="9lTZl3K5D15SRWh5dCpm-1" target="9lTZl3K5D15SRWh5dCpm-2">
          <mxGeometry relative="1" as="geometry" />
        </mxCell>
        <mxCell id="9lTZl3K5D15SRWh5dCpm-1" value="start" style="ellipse;whiteSpace=wrap;html=1;aspect=fixed;" vertex="1" parent="1">
          <mxGeometry x="250" y="40" width="30" height="30" as="geometry" />
        </mxCell>
        <mxCell id="9lTZl3K5D15SRWh5dCpm-7" style="edgeStyle=orthogonalEdgeStyle;rounded=0;orthogonalLoop=1;jettySize=auto;html=1;entryX=0.5;entryY=0;entryDx=0;entryDy=0;" edge="1" parent="1" source="9lTZl3K5D15SRWh5dCpm-2" target="9lTZl3K5D15SRWh5dCpm-4">
          <mxGeometry relative="1" as="geometry" />
        </mxCell>
        <mxCell id="9lTZl3K5D15SRWh5dCpm-2" value="Increment Round Number and Start Round" style="rounded=1;whiteSpace=wrap;html=1;" vertex="1" parent="1">
          <mxGeometry x="205" y="100" width="120" height="60" as="geometry" />
        </mxCell>
        <mxCell id="9lTZl3K5D15SRWh5dCpm-5" style="edgeStyle=orthogonalEdgeStyle;rounded=0;orthogonalLoop=1;jettySize=auto;html=1;entryX=1;entryY=0.5;entryDx=0;entryDy=0;exitX=1;exitY=0.5;exitDx=0;exitDy=0;" edge="1" parent="1" source="9lTZl3K5D15SRWh5dCpm-3" target="9lTZl3K5D15SRWh5dCpm-4">
          <mxGeometry relative="1" as="geometry">
            <Array as="points">
              <mxPoint x="360" y="340" />
              <mxPoint x="360" y="230" />
            </Array>
          </mxGeometry>
        </mxCell>
        <mxCell id="9lTZl3K5D15SRWh5dCpm-6" value="No" style="edgeLabel;html=1;align=center;verticalAlign=middle;resizable=0;points=[];" vertex="1" connectable="0" parent="9lTZl3K5D15SRWh5dCpm-5">
          <mxGeometry x="-0.0105" y="1" relative="1" as="geometry">
            <mxPoint as="offset" />
          </mxGeometry>
        </mxCell>
        <mxCell id="9lTZl3K5D15SRWh5dCpm-18" style="edgeStyle=orthogonalEdgeStyle;rounded=0;orthogonalLoop=1;jettySize=auto;html=1;" edge="1" parent="1" source="9lTZl3K5D15SRWh5dCpm-3" target="9lTZl3K5D15SRWh5dCpm-11">
          <mxGeometry relative="1" as="geometry" />
        </mxCell>
        <mxCell id="9lTZl3K5D15SRWh5dCpm-22" value="Yes" style="edgeLabel;html=1;align=center;verticalAlign=middle;resizable=0;points=[];" vertex="1" connectable="0" parent="9lTZl3K5D15SRWh5dCpm-18">
          <mxGeometry x="-0.3" y="-1" relative="1" as="geometry">
            <mxPoint as="offset" />
          </mxGeometry>
        </mxCell>
        <mxCell id="9lTZl3K5D15SRWh5dCpm-3" value="Is Robot&lt;div&gt;Alive&lt;/div&gt;" style="rhombus;whiteSpace=wrap;html=1;" vertex="1" parent="1">
          <mxGeometry x="225" y="300" width="80" height="80" as="geometry" />
        </mxCell>
        <mxCell id="9lTZl3K5D15SRWh5dCpm-8" style="edgeStyle=orthogonalEdgeStyle;rounded=0;orthogonalLoop=1;jettySize=auto;html=1;entryX=0.5;entryY=0;entryDx=0;entryDy=0;" edge="1" parent="1" source="9lTZl3K5D15SRWh5dCpm-4" target="9lTZl3K5D15SRWh5dCpm-3">
          <mxGeometry relative="1" as="geometry" />
        </mxCell>
        <mxCell id="9lTZl3K5D15SRWh5dCpm-4" value="Get Next Robot" style="rounded=1;whiteSpace=wrap;html=1;" vertex="1" parent="1">
          <mxGeometry x="205" y="200" width="120" height="60" as="geometry" />
        </mxCell>
        <mxCell id="9lTZl3K5D15SRWh5dCpm-17" value="" style="edgeStyle=orthogonalEdgeStyle;rounded=0;orthogonalLoop=1;jettySize=auto;html=1;" edge="1" parent="1" source="9lTZl3K5D15SRWh5dCpm-9" target="9lTZl3K5D15SRWh5dCpm-13">
          <mxGeometry relative="1" as="geometry" />
        </mxCell>
        <mxCell id="9lTZl3K5D15SRWh5dCpm-9" value="Call robot-&amp;gt;process_radar_results" style="rounded=1;whiteSpace=wrap;html=1;" vertex="1" parent="1">
          <mxGeometry x="165" y="547" width="200" height="40" as="geometry" />
        </mxCell>
        <mxCell id="9lTZl3K5D15SRWh5dCpm-20" style="edgeStyle=orthogonalEdgeStyle;rounded=0;orthogonalLoop=1;jettySize=auto;html=1;entryX=0.5;entryY=0;entryDx=0;entryDy=0;" edge="1" parent="1" source="9lTZl3K5D15SRWh5dCpm-10" target="9lTZl3K5D15SRWh5dCpm-9">
          <mxGeometry relative="1" as="geometry" />
        </mxCell>
        <mxCell id="9lTZl3K5D15SRWh5dCpm-10" value="Create a list of RadarObjs containing the findings from the Radar" style="rounded=1;whiteSpace=wrap;html=1;" vertex="1" parent="1">
          <mxGeometry x="165" y="483" width="200" height="40" as="geometry" />
        </mxCell>
        <mxCell id="9lTZl3K5D15SRWh5dCpm-14" value="" style="edgeStyle=orthogonalEdgeStyle;rounded=0;orthogonalLoop=1;jettySize=auto;html=1;" edge="1" parent="1" source="9lTZl3K5D15SRWh5dCpm-11" target="9lTZl3K5D15SRWh5dCpm-10">
          <mxGeometry relative="1" as="geometry" />
        </mxCell>
        <mxCell id="9lTZl3K5D15SRWh5dCpm-11" value="Call robot-&amp;gt;get_radar_direction" style="rounded=1;whiteSpace=wrap;html=1;" vertex="1" parent="1">
          <mxGeometry x="165" y="420" width="200" height="40" as="geometry" />
        </mxCell>
        <mxCell id="9lTZl3K5D15SRWh5dCpm-25" style="edgeStyle=orthogonalEdgeStyle;rounded=0;orthogonalLoop=1;jettySize=auto;html=1;entryX=0.5;entryY=0;entryDx=0;entryDy=0;exitX=0.5;exitY=1;exitDx=0;exitDy=0;" edge="1" parent="1" source="9lTZl3K5D15SRWh5dCpm-13" target="9lTZl3K5D15SRWh5dCpm-24">
          <mxGeometry relative="1" as="geometry" />
        </mxCell>
        <mxCell id="9lTZl3K5D15SRWh5dCpm-13" value="Call robot-&amp;gt;get_shot_location" style="rounded=1;whiteSpace=wrap;html=1;" vertex="1" parent="1">
          <mxGeometry x="165" y="610" width="200" height="40" as="geometry" />
        </mxCell>
        <mxCell id="9lTZl3K5D15SRWh5dCpm-30" style="edgeStyle=orthogonalEdgeStyle;rounded=0;orthogonalLoop=1;jettySize=auto;html=1;entryX=0.5;entryY=0;entryDx=0;entryDy=0;" edge="1" parent="1" source="9lTZl3K5D15SRWh5dCpm-24" target="9lTZl3K5D15SRWh5dCpm-27">
          <mxGeometry relative="1" as="geometry" />
        </mxCell>
        <mxCell id="9lTZl3K5D15SRWh5dCpm-36" value="Yes" style="edgeLabel;html=1;align=center;verticalAlign=middle;resizable=0;points=[];" vertex="1" connectable="0" parent="9lTZl3K5D15SRWh5dCpm-30">
          <mxGeometry x="-0.3" y="-1" relative="1" as="geometry">
            <mxPoint as="offset" />
          </mxGeometry>
        </mxCell>
        <mxCell id="9lTZl3K5D15SRWh5dCpm-33" style="edgeStyle=orthogonalEdgeStyle;rounded=0;orthogonalLoop=1;jettySize=auto;html=1;entryX=0;entryY=0.5;entryDx=0;entryDy=0;" edge="1" parent="1" source="9lTZl3K5D15SRWh5dCpm-24" target="9lTZl3K5D15SRWh5dCpm-29">
          <mxGeometry relative="1" as="geometry">
            <mxPoint x="610" y="130" as="targetPoint" />
          </mxGeometry>
        </mxCell>
        <mxCell id="9lTZl3K5D15SRWh5dCpm-35" value="No" style="edgeLabel;html=1;align=center;verticalAlign=middle;resizable=0;points=[];" vertex="1" connectable="0" parent="9lTZl3K5D15SRWh5dCpm-33">
          <mxGeometry x="-0.2397" y="-1" relative="1" as="geometry">
            <mxPoint as="offset" />
          </mxGeometry>
        </mxCell>
        <mxCell id="9lTZl3K5D15SRWh5dCpm-24" value="&lt;font style=&quot;font-size: 9px;&quot;&gt;Did the Robot Shoot?&lt;/font&gt;" style="rhombus;whiteSpace=wrap;html=1;" vertex="1" parent="1">
          <mxGeometry x="470" y="90" width="80" height="80" as="geometry" />
        </mxCell>
        <mxCell id="9lTZl3K5D15SRWh5dCpm-31" style="edgeStyle=orthogonalEdgeStyle;rounded=0;orthogonalLoop=1;jettySize=auto;html=1;entryX=0.5;entryY=0;entryDx=0;entryDy=0;" edge="1" parent="1" source="9lTZl3K5D15SRWh5dCpm-27" target="9lTZl3K5D15SRWh5dCpm-28">
          <mxGeometry relative="1" as="geometry" />
        </mxCell>
        <mxCell id="9lTZl3K5D15SRWh5dCpm-34" value="Yes" style="edgeLabel;html=1;align=center;verticalAlign=middle;resizable=0;points=[];" vertex="1" connectable="0" parent="9lTZl3K5D15SRWh5dCpm-31">
          <mxGeometry x="0.28" y="-1" relative="1" as="geometry">
            <mxPoint as="offset" />
          </mxGeometry>
        </mxCell>
        <mxCell id="9lTZl3K5D15SRWh5dCpm-32" value="No" style="edgeStyle=orthogonalEdgeStyle;rounded=0;orthogonalLoop=1;jettySize=auto;html=1;entryX=0.5;entryY=0;entryDx=0;entryDy=0;" edge="1" parent="1" source="9lTZl3K5D15SRWh5dCpm-27" target="9lTZl3K5D15SRWh5dCpm-40">
          <mxGeometry relative="1" as="geometry">
            <mxPoint x="610" y="410" as="targetPoint" />
          </mxGeometry>
        </mxCell>
        <mxCell id="9lTZl3K5D15SRWh5dCpm-27" value="&lt;font style=&quot;font-size: 10px;&quot;&gt;Did the&amp;nbsp;&lt;/font&gt;&lt;div&gt;&lt;font style=&quot;font-size: 10px;&quot;&gt;shot hit a&amp;nbsp;&lt;/font&gt;&lt;/div&gt;&lt;div&gt;&lt;font style=&quot;font-size: 10px;&quot;&gt;robot?&lt;/font&gt;&lt;/div&gt;" style="rhombus;whiteSpace=wrap;html=1;" vertex="1" parent="1">
          <mxGeometry x="470" y="210" width="80" height="80" as="geometry" />
        </mxCell>
        <mxCell id="9lTZl3K5D15SRWh5dCpm-39" style="edgeStyle=orthogonalEdgeStyle;rounded=0;orthogonalLoop=1;jettySize=auto;html=1;entryX=0.5;entryY=0;entryDx=0;entryDy=0;exitX=0.5;exitY=1;exitDx=0;exitDy=0;" edge="1" parent="1" source="9lTZl3K5D15SRWh5dCpm-28" target="9lTZl3K5D15SRWh5dCpm-40">
          <mxGeometry relative="1" as="geometry">
            <Array as="points">
              <mxPoint x="510" y="400" />
              <mxPoint x="630" y="400" />
            </Array>
          </mxGeometry>
        </mxCell>
        <mxCell id="9lTZl3K5D15SRWh5dCpm-28" value="Apply Damage to the Robot" style="rounded=1;whiteSpace=wrap;html=1;" vertex="1" parent="1">
          <mxGeometry x="450" y="320" width="120" height="50" as="geometry" />
        </mxCell>
        <mxCell id="9lTZl3K5D15SRWh5dCpm-45" style="edgeStyle=orthogonalEdgeStyle;rounded=0;orthogonalLoop=1;jettySize=auto;html=1;entryX=0.5;entryY=0;entryDx=0;entryDy=0;" edge="1" parent="1" source="9lTZl3K5D15SRWh5dCpm-29" target="9lTZl3K5D15SRWh5dCpm-37">
          <mxGeometry relative="1" as="geometry" />
        </mxCell>
        <mxCell id="9lTZl3K5D15SRWh5dCpm-29" value="call robot-&amp;gt;get_movement" style="rounded=1;whiteSpace=wrap;html=1;" vertex="1" parent="1">
          <mxGeometry x="640" y="110" width="160" height="40" as="geometry" />
        </mxCell>
        <mxCell id="9lTZl3K5D15SRWh5dCpm-46" style="edgeStyle=orthogonalEdgeStyle;rounded=0;orthogonalLoop=1;jettySize=auto;html=1;entryX=0.5;entryY=0;entryDx=0;entryDy=0;" edge="1" parent="1" source="9lTZl3K5D15SRWh5dCpm-37" target="9lTZl3K5D15SRWh5dCpm-40">
          <mxGeometry relative="1" as="geometry">
            <Array as="points">
              <mxPoint x="720" y="400" />
              <mxPoint x="630" y="400" />
            </Array>
          </mxGeometry>
        </mxCell>
        <mxCell id="9lTZl3K5D15SRWh5dCpm-37" value="Handle the Robot&#39;s movement&lt;div&gt;Including Collisions&lt;/div&gt;" style="rounded=1;whiteSpace=wrap;html=1;" vertex="1" parent="1">
          <mxGeometry x="640" y="180" width="160" height="60" as="geometry" />
        </mxCell>
        <mxCell id="9lTZl3K5D15SRWh5dCpm-41" value="yes" style="edgeStyle=orthogonalEdgeStyle;rounded=0;orthogonalLoop=1;jettySize=auto;html=1;" edge="1" parent="1" source="9lTZl3K5D15SRWh5dCpm-40">
          <mxGeometry relative="1" as="geometry">
            <mxPoint x="720" y="500" as="targetPoint" />
          </mxGeometry>
        </mxCell>
        <mxCell id="9lTZl3K5D15SRWh5dCpm-44" value="No" style="edgeStyle=orthogonalEdgeStyle;rounded=0;orthogonalLoop=1;jettySize=auto;html=1;" edge="1" parent="1" source="9lTZl3K5D15SRWh5dCpm-40" target="9lTZl3K5D15SRWh5dCpm-43">
          <mxGeometry relative="1" as="geometry" />
        </mxCell>
        <mxCell id="9lTZl3K5D15SRWh5dCpm-40" value="Is there a Winner?" style="rhombus;whiteSpace=wrap;html=1;" vertex="1" parent="1">
          <mxGeometry x="590" y="460" width="80" height="80" as="geometry" />
        </mxCell>
        <mxCell id="9lTZl3K5D15SRWh5dCpm-42" value="Game Over" style="rounded=1;whiteSpace=wrap;html=1;" vertex="1" parent="1">
          <mxGeometry x="720" y="470" width="120" height="60" as="geometry" />
        </mxCell>
        <mxCell id="9lTZl3K5D15SRWh5dCpm-43" value="Next Round" style="rounded=1;whiteSpace=wrap;html=1;" vertex="1" parent="1">
          <mxGeometry x="570" y="570" width="120" height="60" as="geometry" />
        </mxCell>
      </root>
    </mxGraphModel>
  </diagram>
</mxfile>
